# xmcd
#
# Track frame offsets:
#   150
#   19145
#   40007
#   62125
#   85609
#   102175
#   120359
#   147059
#   161508
#   175828
#   191994
#   208168
#   225941
#   244968
#
# Disc length: 3565 seconds
#
# Revision: 0
# Processed by: cddbd v1.5.2PL0 Copyright (c) Steve Scherf et al.
# Submitted via: GXTranscoder 2.0.1939
#
DISCID=b20deb0e
DTITLE=Billy Idol - Starboulevard
DYEAR=1900
DGENRE=Pop
TTITLE0=White Wedding
TTITLE1=Cradle Of Love
TTITLE2=Eyes Without Face
TTITLE3=Don't Need A Gun
TTITLE4=Catch My Fall
TTITLE5=Daytime Drama
TTITLE6=Trouble With The Sweet Stuff
TTITLE7=Endless Sleep
TTITLE8=Stand In The Shadows
TTITLE9=The Dead Next Door
TTITLE10=Shock To The System
TTITLE11=Come On, Come On
TTITLE12=Sweet Sixteen
TTITLE13=Mony Mony
EXTD=
EXTT0=
EXTT1=
EXTT2=
EXTT3=
EXTT4=
EXTT5=
EXTT6=
EXTT7=
EXTT8=
EXTT9=
EXTT10=
EXTT11=
EXTT12=
EXTT13=
PLAYORDER=
